<svg id="Layer_1" data-name="Layer 1" xmlns="http://www.w3.org/2000/svg" viewBox="0 0 103 46.19"><defs><style>.cls-1{fill:#51514b;}</style></defs><title>icons</title><path id="Canoe" class="cls-1" d="M101.14,33.61a6.33,6.33,0,0,0-4.79-2.29,6.26,6.26,0,0,0-4.75,2.29c-1,1-1.95,1.91-3.82,1.91a4.14,4.14,0,0,1-2.49-.74A32.56,32.56,0,0,0,100.48,18.9l0-.11a.66.66,0,0,0,.09-.28,4,4,0,0,0-.19-3.31,1.33,1.33,0,0,0-1.3-.73c-2.19.25-10.77.95-21.35,1.49l7.81-7.81.08-.09a2.66,2.66,0,1,0-4-3.25c0-.08-11.73,11.5-11.73,11.5L66,16.46c-4.63.15-9.16.24-13.46.27H52c-22.66-.14-39-1.65-43.42-2.11a1.34,1.34,0,0,0-1.27.9,3.31,3.31,0,0,0,.14,3.22.66.66,0,0,0,.1.16l.18.37A33.4,33.4,0,0,0,22.07,34.43a4.23,4.23,0,0,1-2.95,1.09c-1.87,0-2.77-.89-3.82-1.91a6.25,6.25,0,0,0-4.75-2.29,6.24,6.24,0,0,0-4.75,2.29c-1,1-1.89,1.91-3.81,1.91v1.33a6.32,6.32,0,0,0,4.74-2.29c1-1,1.94-1.91,3.81-1.91s2.78.89,3.82,1.91a6.07,6.07,0,0,0,9.5,0c1-1,1.95-1.91,3.82-1.91s2.78.89,3.82,1.91a6.06,6.06,0,0,0,9.51,0c1-1,1.95-1.93,3.82-1.93a4.19,4.19,0,0,1,2.66.86l-6.84,6.84a.66.66,0,0,0,0,.94l8,8a.66.66,0,0,0,.94,0l7.44-7.44a6.36,6.36,0,0,0,1.47-6.69L61,32.73a4.92,4.92,0,0,1,1-.11c1.87,0,2.77.89,3.82,1.92a6.07,6.07,0,0,0,9.51,0c1-1,1.95-1.91,3.82-1.91S82,33.53,83,34.56a6.08,6.08,0,0,0,9.51,0c1-1,2-1.91,3.83-1.91a5,5,0,0,1,3.84,1.91A6.17,6.17,0,0,0,105,36.86V35.53C103.08,35.53,102.19,34.64,101.14,33.61ZM99.22,15.8a1.54,1.54,0,0,1,.27.69,2.9,2.9,0,0,1,0,1.35c-2.17.19-12.2,1.05-25.19,1.64l2.11-2.11C87.57,16.82,96.83,16.07,99.22,15.8ZM84,4.64A1.33,1.33,0,1,1,82.69,6,1.33,1.33,0,0,1,84,4.64ZM8.29,16.86a1.84,1.84,0,0,1,.29-.9c4.67.48,20.92,2,43.4,2.1h.58c4.31,0,8.85-.12,13.5-.27l2.46-.09-2.08,2.08c-4.54.15-9,.23-13.19.26h-.56C28.52,19.89,11,18.11,8.45,17.84A1.88,1.88,0,0,1,8.29,16.86ZM40.09,33.6c-1,1-1.95,1.93-3.82,1.93s-2.77-.89-3.82-1.91a6.25,6.25,0,0,0-4.75-2.29,6.09,6.09,0,0,0-4.6,2.14A32,32,0,0,1,9.2,19.25c4.53.46,21.18,2,43.48,2.12h.58c3.79,0,7.75-.1,11.81-.22L54.8,31.41a6.36,6.36,0,0,0-6.33,1.14,5.57,5.57,0,0,0-3.63-1.26A6.24,6.24,0,0,0,40.09,33.6Zm16.06,7.32-7,7-7.1-7.1,7-7a5,5,0,0,1,7.1,7.1Zm.94-8a6.41,6.41,0,0,0-1-.84L81.45,6.65a2.67,2.67,0,0,0,1.88,1.89L57.94,33.92A6.35,6.35,0,0,0,57.1,32.88Zm22.11-1.56a6.26,6.26,0,0,0-4.75,2.29c-1,1-1.95,1.91-3.82,1.91s-2.77-.89-3.82-1.92a6.35,6.35,0,0,0-4.38-2.29L72.87,20.87c12.62-.54,22.71-1.36,26-1.65A31.36,31.36,0,0,1,84.2,33.84L84,33.61A6.25,6.25,0,0,0,79.21,31.32Z" transform="translate(-2 -3.31)"/></svg>