<?xml version="1.0" encoding="utf-8"?>
<!-- Generator: Adobe Illustrator 20.1.0, SVG Export Plug-In . SVG Version: 6.00 Build 0)  -->
<svg version="1.1" id="Layer_1" xmlns="http://www.w3.org/2000/svg" xmlns:xlink="http://www.w3.org/1999/xlink" x="0px" y="0px"
	 viewBox="0 0 108 53.3" style="enable-background:new 0 0 108 53.3;" xml:space="preserve">
<style type="text/css">
	.st0{fill:#51514B;}
	.st1{display:none;fill:#51514B;}
</style>
<g id="Bear">
	<rect x="25.6" y="11.6" transform="matrix(0.8125 -0.583 0.583 0.8125 -2.1545 17.7197)" class="st0" width="1.7" height="1.1"/>
	<path class="st0" d="M29.1,9.5l-1.9-0.8c-0.2-0.1-0.4,0-0.5,0.1l-2.5,1.6l0.6,1l2.2-1.4l1.4,0.6c0.2,0.6,0.5,2.5-1.7,3.7l0.6,1
		c2.8-1.6,2.6-4.2,2.1-5.4C29.4,9.6,29.3,9.5,29.1,9.5z"/>
	<path class="st0" d="M95.4,38l-5.2-10.3c0-0.7,0.1-3.3-0.1-6.3c0.9,0.4,1.8,0.7,2.6,0.7c0.5,0,0.8-0.1,1.1-0.5
		c0.3-0.4,0.4-0.8,0.3-1.2c-0.2-1.1-1.4-2-2.8-2.9c-0.8-0.6-1.7-1.2-2.1-1.8c-0.1-0.5-0.3-1-0.5-1.4C86.9,10,84,6.6,80.2,4.3
		C77,2.4,73.1,1.4,69,1.4c-0.5,0-0.9,0-1.4,0C57.3,1.4,37.7,1.9,37.5,2c-0.1,0-0.1,0-0.2,0L22.6,7.4L22,6.5
		c-0.1-0.2-0.3-0.3-0.5-0.2L20,6.5c-0.1,0-0.3,0.1-0.4,0.2c-0.5,0.6-1.1,2-0.1,3.4l-5.5,4.9c-0.1,0.1-0.2,0.3-0.2,0.4v3.7l-2.4,3.3
		c-0.2,0.3-0.1,0.6,0.1,0.8l4.4,3.3c0.1,0.1,0.3,0.1,0.5,0.1c0.1,0,7.5-2.5,10-2.5c0.2,0,0.3,0,0.3,0c0,0,0,0,0.1,0
		c0.7,0.1,1.3,0.3,1.7,0.6c0.9,0.8,0.7,2.1,0.7,2.2l-3.6,15.9l-4.4,0.4c-0.2,0-0.4,0.1-0.5,0.3l-1.4,2.8c-0.1,0.2-0.1,0.4,0,0.5
		c0.1,0.2,0.3,0.3,0.5,0.3l10.8,0.2c0.2,0,0.4-0.1,0.5-0.2l4.4-6.6c0,0,0,0,0,0l5.8-10.4l9.6,9.6l0.7,4.7l-4.7,0.8
		c-0.2,0-0.4,0.2-0.4,0.3l-1.2,2.6c-0.1,0.2-0.1,0.4,0,0.5c0.1,0.2,0.3,0.3,0.5,0.3c0,0,0,0,0,0l9.4-0.1c0.2,0,0.4-0.1,0.5-0.2
		l4.1-6c0.1-0.1,0.1-0.2,0.1-0.3L61,32.3h8l5,12.4l-3.4,0.6c-0.2,0-0.4,0.2-0.4,0.4L69.5,48c-0.1,0.2,0,0.4,0.1,0.5
		c0.1,0.1,0.3,0.2,0.4,0.2l10.6,0.6c0,0,0,0,0,0c0.2,0,0.4-0.1,0.5-0.3l4-8.8l0.9,0.5l1.3,1.5l-1.9,4.3c-0.1,0.2,0,0.5,0.1,0.6
		l1.6,1.6c0.2,0.2,0.6,0.2,0.8,0l6.2-6.2c0.1-0.1,0.1-0.1,0.1-0.2l1.2-3.9C95.5,38.3,95.5,38.2,95.4,38z M90.7,18.5
		c1,0.7,2.2,1.6,2.3,2.2c0,0.1,0,0.2-0.1,0.3c0,0-0.2,0.1-1-0.1c-0.6-0.2-1.2-0.5-1.8-0.7l0,0c-0.1-0.8-0.2-1.6-0.3-2.4
		C90.1,18.1,90.4,18.3,90.7,18.5z M20.4,7.5l0.9-0.1l0.5,0.7l-1.4,1.2C20,8.5,20.2,7.9,20.4,7.5z M13.7,21.3
		c0.2,0.1,0.5,0.3,0.5,0.5c0,0.1,0.1,0.2,0,0.4c-0.2,0.4-0.5,0.8-0.7,1l-0.8-0.6L13.7,21.3z M80.3,48.2l-9.5-0.5l0.4-1.3l3.7-0.7
		c0.2,0,0.3-0.1,0.4-0.3c0.1-0.1,0.1-0.3,0-0.5l-5.1-12.6l13.9,7.4L80.3,48.2z M93.3,41.9l-5.7,5.7l-1-0.9l1.9-4.3
		c0.1-0.2,0.1-0.4-0.1-0.6l-1.5-1.9c0-0.1-0.1-0.1-0.2-0.1l-16.1-8.5c-0.1,0-0.2-0.1-0.3-0.1h-9.9c-0.3,0-0.5,0.2-0.6,0.5l-0.8,10.5
		l-3.8,5.6l-8.3,0.1l0.7-1.6l4.9-0.8c0.3,0,0.5-0.3,0.5-0.6l-0.8-5.5c0-0.1-0.1-0.2-0.2-0.3L42,28.8c-0.1-0.1-0.3-0.2-0.5-0.2
		c-0.2,0-0.3,0.1-0.4,0.3l-6.2,11l-4.3,6.3L21,46.1l0.9-1.7l4.5-0.4c0.2,0,0.4-0.2,0.5-0.4l3.7-16.3c0,0,0,0,0,0
		c0-0.1,0.4-2-1.1-3.3c-0.6-0.5-1.4-0.8-2.3-0.9c-0.2,0-0.3,0-0.5,0c-2.4,0-8.7,2-10.1,2.5L14.4,24c0.3-0.3,0.6-0.7,0.8-1.2
		c0.2-0.5,0.2-0.9,0-1.3c-0.2-0.5-0.6-0.8-0.9-1l0.5-0.7c0.1-0.1,0.1-0.2,0.1-0.3v-3.6l8-7.3l14.5-5.3c1.5,0,20.1-0.6,30-0.6
		c0.5,0,1,0,1.4,0c5,0,14.1,1.7,18.7,12.4c1.9,4.3,1.4,12.9,1.4,12.9c0,0.1,0,0.2,0.1,0.3l5.1,10.2L93.3,41.9z"/>
	<rect x="17.4" y="16.8" class="st0" width="2.3" height="1.1"/>
	<path class="st0" d="M78.3,23.7c-0.4-1.2-0.9-2.7-3.1-2.4l0.2,1.1c1.2-0.2,1.5,0.4,1.9,1.6c0.4,1.1,0.9,2.5,2.7,2.5
		c0.2,0,0.3,0,0.5,0l-0.1-1.1C79,25.6,78.7,24.9,78.3,23.7z"/>
	<path class="st0" d="M70.1,23.7c-0.4-1.2-0.9-2.7-3.1-2.4l0.2,1.1c1.2-0.2,1.5,0.4,1.9,1.6c0.4,1.1,0.9,2.5,2.7,2.5
		c0.2,0,0.3,0,0.5,0L72,25.4C70.8,25.6,70.5,24.9,70.1,23.7z"/>
	<path class="st0" d="M62.7,23.7c-0.4-1.2-0.9-2.7-3.1-2.4l0.2,1.1c1.2-0.2,1.5,0.4,1.9,1.6c0.4,1.1,0.9,2.5,2.7,2.5
		c0.2,0,0.3,0,0.5,0l-0.1-1.1C63.4,25.6,63.1,24.9,62.7,23.7z"/>
	<path class="st0" d="M46.4,23.7c-0.4-1.2-0.9-2.7-3.1-2.4l0.2,1.1c1.2-0.2,1.5,0.4,1.9,1.6c0.4,1.1,0.9,2.5,2.7,2.5
		c0.2,0,0.3,0,0.5,0l-0.1-1.1C47.1,25.6,46.8,24.9,46.4,23.7z"/>
	<path class="st0" d="M53.8,23.7c-0.4-1.2-0.9-2.7-3.1-2.4l0.2,1.1c1.2-0.2,1.5,0.4,1.9,1.6c0.4,1.1,0.9,2.5,2.7,2.5
		c0.2,0,0.3,0,0.5,0l-0.1-1.1C54.5,25.6,54.2,24.9,53.8,23.7z"/>
	<path class="st0" d="M61,8.7c0.4,1.1,0.9,2.5,2.7,2.5c0.2,0,0.3,0,0.5,0L64,10.1c-1.2,0.2-1.5-0.5-2-1.7c-0.4-1.2-0.9-2.7-3.1-2.4
		l0.2,1.1C60.3,6.9,60.5,7.5,61,8.7z"/>
	<path class="st0" d="M52.8,8.7c0.4,1.1,0.9,2.5,2.7,2.5c0.2,0,0.3,0,0.5,0l-0.1-1.1c-1.2,0.2-1.5-0.5-2-1.7
		c-0.4-1.2-0.9-2.7-3.1-2.4l0.2,1.1C52.1,6.9,52.3,7.5,52.8,8.7z"/>
	<path class="st0" d="M46.4,8.4C46,7.2,45.5,5.6,43.3,6l0.2,1.1c1.2-0.2,1.5,0.4,1.9,1.6c0.4,1.1,0.9,2.5,2.7,2.5c0.2,0,0.3,0,0.5,0
		l-0.1-1.1C47.1,10.3,46.8,9.6,46.4,8.4z"/>
	<path class="st0" d="M68.4,8.7c0.4,1.1,0.9,2.5,2.7,2.5c0.2,0,0.3,0,0.5,0l-0.1-1.1c-1.2,0.2-1.5-0.5-2-1.7C69,7.2,68.5,5.6,66.3,6
		l0.2,1.1C67.7,6.9,67.9,7.5,68.4,8.7z"/>
	<path class="st0" d="M70.9,16c-0.4-1.2-0.9-2.7-3.1-2.4l0.2,1.1c1.2-0.2,1.5,0.4,1.9,1.6c0.4,1.1,0.9,2.5,2.7,2.5
		c0.2,0,0.3,0,0.5,0l-0.1-1.1C71.6,17.9,71.3,17.3,70.9,16z"/>
	<path class="st0" d="M62.7,16c-0.4-1.2-0.9-2.7-3.1-2.4l0.2,1.1c1.2-0.2,1.5,0.4,1.9,1.6c0.4,1.1,0.9,2.5,2.7,2.5
		c0.2,0,0.3,0,0.5,0l-0.1-1.1C63.4,17.9,63.1,17.3,62.7,16z"/>
	<path class="st0" d="M55.3,16c-0.4-1.2-0.9-2.7-3.1-2.4l0.2,1.1c1.2-0.2,1.5,0.4,1.9,1.6c0.4,1.1,0.9,2.5,2.7,2.5
		c0.2,0,0.3,0,0.5,0l-0.1-1.1C56,17.9,55.7,17.3,55.3,16z"/>
	<path class="st0" d="M46.4,16c-0.4-1.2-0.9-2.7-3.1-2.4l0.2,1.1c1.2-0.2,1.5,0.4,1.9,1.6c0.4,1.1,0.9,2.5,2.7,2.5
		c0.2,0,0.3,0,0.5,0l-0.1-1.1C47.1,17.9,46.8,17.3,46.4,16z"/>
	<path class="st0" d="M38.8,16c-0.4-1.2-0.9-2.7-3.1-2.4l0.2,1.1c1.2-0.2,1.5,0.4,1.9,1.6c0.4,1.1,0.9,2.5,2.7,2.5
		c0.2,0,0.3,0,0.5,0l-0.1-1.1C39.5,17.9,39.2,17.3,38.8,16z"/>
	<path class="st0" d="M77.2,16.4c0.4,1.1,0.9,2.5,2.7,2.5c0.2,0,0.3,0,0.5,0l-0.1-1.1c-1.2,0.2-1.5-0.5-2-1.7
		c-0.4-1.2-0.9-2.7-3.1-2.4l0.2,1.1C76.5,14.6,76.8,15.2,77.2,16.4z"/>
</g>
<path id="Mountains" class="st1" d="M90.3,47.8L77.5,25.7c0.6,0,1.1,0,1.5,0c0.1,0,0.3,0,0.5,0c0.3,0,0.6,0,0.8,0l1.3,0
	c1,0,2.3,0,3.3,0c1.2,0,1.5,0,1.5,0c1.3-0.1,2.1-0.9,2.1-2.1c0-0.6-0.2-1.1-0.6-1.5c-0.4-0.4-1-0.6-1.7-0.6
	c-0.1-0.5-0.2-0.9-0.6-1.3c-0.5-0.6-1.2-0.9-1.9-0.9c-0.3,0-0.6,0.1-0.9,0.2c-0.6-1-1.7-1.6-3-1.6h-0.1c-1.3,0-2.4,0.6-3,1.6
	c-0.3-0.1-0.6-0.2-0.9-0.2c-0.6,0-1.2,0.2-1.7,0.6l-2.5-4.3c-0.1-0.2-0.3-0.3-0.5-0.3c-0.2,0-0.4,0.1-0.5,0.3l-6.2,10.8l-7.7-13.3
	c0.8,0,1,0,1,0c2-0.1,3.1-1.3,3.1-3.1c0-1-0.4-1.9-1.1-2.5c-0.5-0.4-1.4-0.8-2.7-0.7c0-1.2-0.7-2.3-1.7-3c-1.1-0.7-2.5-0.8-3.8-0.2
	c-0.9-1.7-2.7-2.8-4.8-2.8h-0.1c-2.1,0-3.9,1.1-4.8,2.8c-1.2-0.6-2.6-0.5-3.7,0.2c-1.1,0.7-1.7,1.8-1.7,3.1
	c-1.3-0.1-2.1,0.3-2.6,0.6C33.1,8,32.7,8.9,32.7,10c0,1.3,0.7,3,3.1,3.1c0.1,0,0.8,0,1.9,0c1.3,0,3.1,0,5.2,0c1.1,0,2.2,0,2.9,0
	c0.2,0,0.6,0,0.9,0c0.5,0,1,0,1.3,0h0l-7.6,13.1l-6.2-10.7c-0.1-0.2-0.3-0.3-0.5-0.3c-0.2,0-0.4,0.1-0.5,0.3L14.7,47.8
	c-0.1,0.2-0.1,0.4,0,0.5s0.3,0.3,0.5,0.3h37.2c0,0,0.1,0,0.1,0c0,0,0.1,0,0.1,0h37.2c0.2,0,0.4-0.1,0.5-0.3S90.4,48,90.3,47.8z
	 M75.8,20.3c0.3,0,0.6,0.1,0.9,0.3c0.1,0.1,0.3,0.1,0.5,0.1c0.2,0,0.3-0.2,0.3-0.3c0.3-0.9,1.2-1.5,2.2-1.5h0.1c1,0,1.9,0.6,2.2,1.5
	c0.1,0.2,0.2,0.3,0.3,0.3c0.2,0.1,0.3,0,0.5-0.1c0.3-0.2,0.6-0.3,0.9-0.3c0.4,0,0.8,0.2,1.1,0.5c0.2,0.2,0.4,0.6,0.3,1.1
	c0,0.2,0,0.4,0.2,0.5c0.1,0.1,0.3,0.2,0.5,0.1c0.6-0.1,1.1,0,1.4,0.2c0.2,0.2,0.3,0.5,0.3,0.8c0,0.7-0.3,1-1.1,1c0,0-0.3,0-1.5,0
	c-1,0-2.2,0-3.3,0l-1.3,0c-0.2,0-0.5,0-0.8,0c-0.2,0-0.4,0-0.5,0c-0.4,0-1,0-1.6,0l-1.1,0c-0.8,0-1.5,0-2.1,0c-0.9,0-1,0-1.1,0
	c-1-0.1-1.1-0.7-1.1-1c0-0.3,0.1-1.1,1.2-1.1c0.2,0,0.3,0,0.5,0.1c0.2,0,0.4,0,0.5-0.1c0.1-0.1,0.2-0.3,0.2-0.5
	c-0.1-0.4,0-0.8,0.3-1.2C75,20.5,75.4,20.3,75.8,20.3z M71.2,16.9l2.2,3.9c-0.1,0.2-0.1,0.4-0.2,0.6c0,0-0.1,0-0.1,0
	c-1.5,0-2.2,1.1-2.2,2.1c0,1,0.6,2,2.1,2.1c0,0,0.1,0,1.1,0c0.6,0,1.3,0,2.1,0l0.8,1.5c-0.6,0.4-1,1.3-1.3,2.1
	c-0.4,0.8-0.7,1.7-1.2,1.7c-0.5,0-0.9-0.9-1.2-1.7c-0.5-1.1-1-2.4-2.2-2.4c-1.2,0-1.7,1.3-2.2,2.4c-0.4,0.8-0.7,1.7-1.2,1.7
	s-0.9-0.9-1.2-1.7c-0.3-0.8-0.7-1.6-1.3-2.1L71.2,16.9z M58.4,17.9c-0.7,0.4-1.1,1.3-1.4,2.2c-0.4,0.8-0.7,1.7-1.2,1.7
	c-0.5,0-0.9-0.9-1.2-1.7c-0.5-1.1-1-2.4-2.2-2.4s-1.7,1.3-2.2,2.4c-0.4,0.8-0.7,1.7-1.2,1.7c-0.5,0-0.9-0.9-1.2-1.7
	c-0.3-0.8-0.7-1.7-1.3-2.1l6-10.4L58.4,17.9z M48,12c-0.3,0-0.9,0-1.4,0c-0.3,0-0.7,0-0.9,0c-0.7,0-1.7,0-2.9,0c-2.7,0-6.7,0-7,0
	c-1.4-0.1-2.1-0.9-2.1-2c0-0.7,0.3-1.3,0.8-1.7c0.6-0.4,1.4-0.6,2.4-0.3c0.2,0,0.4,0,0.5-0.1c0.1-0.1,0.2-0.3,0.2-0.5
	c-0.2-1.1,0.3-2.1,1.2-2.7c1-0.6,2.1-0.6,3.1,0.1c0.1,0.1,0.3,0.1,0.5,0.1c0.2,0,0.3-0.2,0.3-0.3c0.6-1.6,2.2-2.6,4-2.6h0.1
	c1.8,0,3.4,1,4,2.6c0.1,0.2,0.2,0.3,0.3,0.3c0.2,0.1,0.3,0,0.5-0.1c1-0.7,2.2-0.7,3.2-0.1c0.9,0.6,1.3,1.6,1.2,2.7
	c0,0.2,0,0.4,0.2,0.5c0.1,0.1,0.3,0.2,0.5,0.1c1-0.2,1.9-0.1,2.5,0.4c0.5,0.4,0.7,1,0.7,1.7c0,1.3-0.7,2-2.1,2.1c-0.1,0-0.3,0-1.6,0
	l-3.4-5.8c-0.1-0.2-0.3-0.3-0.5-0.3c-0.2,0-0.4,0.1-0.5,0.3L48.6,12L48,12z M45.8,18.9c0.3,0.3,0.6,0.9,0.9,1.6
	c0.5,1.1,1,2.4,2.2,2.4c1.2,0,1.7-1.3,2.2-2.4c0.4-0.8,0.7-1.7,1.2-1.7s0.9,0.9,1.2,1.7c0.5,1.1,1,2.4,2.2,2.4
	c1.2,0,1.7-1.3,2.2-2.4c0.3-0.7,0.6-1.4,0.9-1.6l5,8.6L52.5,47.2L41,27.3L45.8,18.9z M33.8,16.9l5.9,10.2c-0.6,0.4-1,1.3-1.3,2.1
	c-0.4,0.8-0.7,1.7-1.2,1.7c-0.5,0-0.9-0.9-1.2-1.7c-0.5-1.1-1-2.4-2.2-2.4c-1.2,0-1.7,1.3-2.2,2.4c-0.4,0.8-0.7,1.7-1.2,1.7
	c-0.5,0-0.9-0.9-1.2-1.7c-0.3-0.8-0.7-1.6-1.3-2.1L33.8,16.9z M16.1,47.5l11.2-19.4c0.3,0.3,0.6,0.9,0.8,1.5c0.5,1.1,1,2.4,2.2,2.4
	c1.2,0,1.7-1.3,2.2-2.4c0.4-0.8,0.7-1.7,1.2-1.7c0.5,0,0.9,0.9,1.2,1.7c0.5,1.1,1,2.4,2.2,2.4c1.2,0,1.7-1.3,2.2-2.4
	c0.3-0.6,0.5-1.2,0.8-1.5l11.2,19.4H16.1z M53.5,47.5l11.2-19.4c0.3,0.3,0.6,0.9,0.8,1.5c0.5,1.1,1,2.4,2.2,2.4s1.7-1.3,2.2-2.4
	c0.4-0.8,0.7-1.7,1.2-1.7c0.5,0,0.9,0.9,1.2,1.7c0.5,1.1,1,2.4,2.2,2.4c1.2,0,1.7-1.3,2.2-2.4c0.3-0.6,0.5-1.2,0.8-1.5l11.2,19.4
	H53.5z"/>
<path id="Tent" class="st1" d="M89.8,42.1l1-0.7l-2.1-2.7l0,0L64.3,2.5c-0.1-0.2-0.3-0.3-0.5-0.3L37.3,0.6c-0.2,0-0.4,0.1-0.6,0.3
	L13.9,40.2L11.4,41l0.4,1.2l2.7-0.8c0.1,0,0.3-0.1,0.3-0.3L33.6,8.6l1.4,2.5L18.7,39.2c-0.1,0.2-0.1,0.4,0,0.6
	c0.1,0.2,0.3,0.3,0.5,0.3L53,43.7l2.8,5.1l1.1-0.6l-1.3-2.4l32.8-5.7L89.8,42.1z M36.1,40.7l-13.9-1.5l13.9-3.9L36.1,40.7z
	 M36.1,13.1l0,20.9l-15.5,4.4l15.1-26L36.1,13.1z M37.3,40.8l0-25.5l14.9,27.1L37.3,40.8z M34.3,7.4l2.9-4.9l22.9,41.3l-5.2,0.9
	L34.3,7.4z M61.3,43.6L38.2,1.8l25.3,1.6l24.1,35.6L61.3,43.6z"/>
<path id="Canoe" class="st1" d="M101.1,33.6c-1.1-1.1-2.4-2.3-4.8-2.3c-2.4,0-3.7,1.2-4.8,2.3c-1,1-1.9,1.9-3.8,1.9
	c-1.1,0-1.8-0.3-2.5-0.7c9.6-4.9,13.8-12.7,15.2-15.9c0,0,0-0.1,0-0.1c0-0.1,0.1-0.2,0.1-0.3c0.5-1,0.3-2.5-0.2-3.3
	c-0.3-0.5-0.8-0.8-1.3-0.7c-2.2,0.3-10.8,0.9-21.4,1.5l7.8-7.8c0,0,0.1-0.1,0.1-0.1c0.6-0.5,1-1.2,1-2.1c0-1.5-1.2-2.7-2.7-2.7
	c-1.1,0-2,0.6-2.4,1.5c0-0.1-11.7,11.5-11.7,11.5L66,16.5c-4.6,0.2-9.2,0.2-13.5,0.3c-0.1,0-0.4,0-0.6,0c-22.7-0.1-39-1.7-43.4-2.1
	c-0.5-0.1-1,0.3-1.3,0.9c-0.5,0.9-0.5,2.2,0.1,3.2c0,0.1,0.1,0.1,0.1,0.2c0,0.1,0.1,0.2,0.2,0.4c3.9,8.2,9.8,12.7,14.4,15.2
	c-0.8,0.6-1.6,1.1-2.9,1.1c-1.9,0-2.8-0.9-3.8-1.9c-1.1-1.1-2.3-2.3-4.7-2.3s-3.7,1.2-4.7,2.3c-1,1-1.9,1.9-3.8,1.9v1.3
	c2.4,0,3.6-1.2,4.7-2.3c1-1,1.9-1.9,3.8-1.9s2.8,0.9,3.8,1.9c1.1,1.1,2.3,2.3,4.8,2.3c2.4,0,3.7-1.2,4.8-2.3c1-1,1.9-1.9,3.8-1.9
	c1.9,0,2.8,0.9,3.8,1.9c1.1,1.1,2.3,2.3,4.8,2.3c2.4,0,3.7-1.2,4.8-2.3c1-1,1.9-1.9,3.8-1.9c1.2,0,2,0.4,2.7,0.9l-6.8,6.8
	c-0.1,0.1-0.2,0.3-0.2,0.5s0.1,0.3,0.2,0.5l8,8c0.1,0.1,0.3,0.2,0.5,0.2s0.3-0.1,0.5-0.2l7.4-7.4c1.8-1.8,2.3-4.4,1.5-6.7l2.5-2.5
	c0.3-0.1,0.7-0.1,1-0.1c1.9,0,2.8,0.9,3.8,1.9c1.1,1.1,2.3,2.3,4.8,2.3c2.4,0,3.7-1.2,4.8-2.3c1-1,1.9-1.9,3.8-1.9s2.8,0.9,3.8,1.9
	c1.1,1.1,2.3,2.3,4.8,2.3c2.4,0,3.7-1.2,4.8-2.3c1-1,2-1.9,3.8-1.9c1.9,0,2.8,0.9,3.8,1.9c1.1,1.1,2.3,2.3,4.8,2.3v-1.3
	C103.1,35.5,102.2,34.6,101.1,33.6z M99.2,15.8c0.1,0.1,0.2,0.3,0.3,0.7c0.1,0.5,0.1,1,0,1.3c-2.2,0.2-12.2,1.1-25.2,1.6l2.1-2.1
	C87.6,16.8,96.8,16.1,99.2,15.8z M84,4.6c0.7,0,1.3,0.6,1.3,1.3c0,0.7-0.6,1.3-1.3,1.3c-0.7,0-1.3-0.6-1.3-1.3
	C82.7,5.2,83.3,4.6,84,4.6z M8.3,16.9c0-0.5,0.2-0.8,0.3-0.9c4.7,0.5,20.9,2,43.4,2.1c0.1,0,0.4,0,0.6,0c4.3,0,8.8-0.1,13.5-0.3
	l2.5-0.1l-2.1,2.1c-4.5,0.1-9,0.2-13.2,0.3c-0.1,0-0.4,0-0.6,0C28.5,19.9,11,18.1,8.4,17.8C8.3,17.5,8.3,17.1,8.3,16.9z M40.1,33.6
	c-1,1-1.9,1.9-3.8,1.9c-1.9,0-2.8-0.9-3.8-1.9c-1.1-1.1-2.3-2.3-4.8-2.3c-2.3,0-3.5,1.1-4.6,2.1c-4.3-2.2-10-6.5-13.9-14.2
	c4.5,0.5,21.2,2,43.5,2.1c0.1,0,0.4,0,0.6,0c3.8,0,7.8-0.1,11.8-0.2L54.8,31.4c-0.7-0.3-1.4-0.4-2.2-0.4c-1.5,0-3,0.5-4.1,1.5
	c-0.8-0.6-1.9-1.3-3.6-1.3C42.4,31.3,41.2,32.5,40.1,33.6z M56.2,40.9l-7,7l-7.1-7.1l7-7c0.9-0.9,2.2-1.5,3.6-1.5
	c1.3,0,2.6,0.5,3.6,1.5C58.1,35.8,58.1,39,56.2,40.9z M57.1,32.9c-0.3-0.3-0.7-0.6-1-0.8L81.4,6.6c0.2,0.9,1,1.6,1.9,1.9L57.9,33.9
	C57.7,33.6,57.4,33.2,57.1,32.9z M79.2,31.3c-2.4,0-3.7,1.2-4.8,2.3c-1,1-1.9,1.9-3.8,1.9c-1.9,0-2.8-0.9-3.8-1.9
	c-1-1-2.2-2.2-4.4-2.3l10.4-10.4c12.6-0.5,22.7-1.4,26-1.6c-1.7,3.5-5.9,10.4-14.7,14.6c-0.1-0.1-0.2-0.2-0.2-0.2
	C82.9,32.5,81.6,31.3,79.2,31.3z"/>
</svg>
